<svg width="56" height="56" viewBox="0 0 56 56" fill="none" xmlns="http://www.w3.org/2000/svg">
<rect width="56" height="56" rx="28" fill="#E6F2FF"/>
<path d="M24 18C21.7909 18 20 19.7909 20 22V25.1459C20 25.9034 19.572 26.596 18.8944 26.9348L18.5528 27.1056C18.214 27.275 18 27.6212 18 28C18 28.3788 18.214 28.725 18.5528 28.8944L18.8944 29.0652C19.572 29.404 20 30.0966 20 30.8541V34C20 36.2091 21.7909 38 24 38H25.5C26.0523 38 26.5 37.5523 26.5 37C26.5 36.4477 26.0523 36 25.5 36H24C22.8954 36 22 35.1046 22 34V30.8541C22 29.7636 21.5565 28.7405 20.8027 28C21.5565 27.2595 22 26.2364 22 25.1459V22C22 20.8954 22.8954 20 24 20H25.5C26.0523 20 26.5 19.5523 26.5 19C26.5 18.4477 26.0523 18 25.5 18H24Z" fill="#00050B"/>
<path d="M32 18C34.2091 18 36 19.7909 36 22V25.1459C36 25.9034 36.428 26.596 37.1056 26.9348L37.4472 27.1056C37.786 27.275 38 27.6212 38 28C38 28.3788 37.786 28.725 37.4472 28.8944L37.1056 29.0652C36.428 29.404 36 30.0966 36 30.8541V34C36 36.2091 34.2091 38 32 38H30.5C29.9477 38 29.5 37.5523 29.5 37C29.5 36.4477 29.9477 36 30.5 36H32C33.1046 36 34 35.1046 34 34V30.8541C34 29.7636 34.4435 28.7405 35.1973 28C34.4435 27.2595 34 26.2364 34 25.1459V22C34 20.8954 33.1046 20 32 20H30.5C29.9477 20 29.5 19.5523 29.5 19C29.5 18.4477 29.9477 18 30.5 18H32Z" fill="#00050B"/>
</svg>
