<svg width="48" height="48" viewBox="0 0 48 48" fill="none" xmlns="http://www.w3.org/2000/svg">
<path d="M42.7711 17.1979C43.0901 17.8124 42.6105 18.5 41.9182 18.5H5C4.44772 18.5 4 18.0523 4 17.5V12.84C4 7.96 7.96 4 12.84 4H17.48C20.74 4 21.76 5.06 23.06 6.8L25.86 10.52C26.48 11.34 26.56 11.44 27.72 11.44H33.3C37.4167 11.44 40.9936 13.7744 42.7711 17.1979Z" fill="#0000FF"/>
<path d="M42.9634 21.4995C43.5143 21.4995 43.9615 21.9452 43.9634 22.4961L44 33.3C44 39.2 39.2 44 33.3 44H14.7C8.8 44 4 39.2 4 33.3V22.5C4 21.9478 4.44771 21.5 4.99999 21.5L42.9634 21.4995Z" fill="#0000FF"/>
</svg>
