<svg width="56" height="56" viewBox="0 0 56 56" fill="none" xmlns="http://www.w3.org/2000/svg">
<rect width="56" height="56" rx="28" fill="#E6F2FF"/>
<path d="M31.4417 21.3363C31.6275 20.8162 31.3564 20.244 30.8363 20.0583C30.3162 19.8725 29.744 20.1436 29.5583 20.6637L24.5583 34.6637C24.3725 35.1838 24.6436 35.756 25.1637 35.9417C25.6838 36.1275 26.256 35.8564 26.4417 35.3363L31.4417 21.3363Z" fill="#00050B"/>
<path d="M24.8321 23.4453C25.1384 23.9048 25.0142 24.5257 24.5547 24.832L19.8028 28L24.5547 31.1679C25.0142 31.4743 25.1384 32.0952 24.8321 32.5547C24.5257 33.0142 23.9048 33.1384 23.4453 32.832L17.4453 28.832C17.1671 28.6466 17 28.3344 17 28C17 27.6656 17.1671 27.3534 17.4453 27.1679L23.4453 23.1679C23.9048 22.8616 24.5257 22.9858 24.8321 23.4453Z" fill="#00050B"/>
<path d="M31.1679 23.4453C30.8616 23.9048 30.9858 24.5257 31.4453 24.832L36.1972 28L31.4453 31.1679C30.9858 31.4743 30.8616 32.0952 31.1679 32.5547C31.4743 33.0142 32.0952 33.1384 32.5547 32.832L38.5547 28.832C38.8329 28.6466 39 28.3344 39 28C39 27.6656 38.8329 27.3534 38.5547 27.1679L32.5547 23.1679C32.0952 22.8616 31.4743 22.9858 31.1679 23.4453Z" fill="#00050B"/>
</svg>
