<svg width="24" height="24" viewBox="0 0 24 24" fill="none" xmlns="http://www.w3.org/2000/svg">
<g clip-path="url(#clip0_0_355)">
<path fill-rule="evenodd" clip-rule="evenodd" d="M12.0006 0.5C9.15186 0.501478 6.3965 1.51046 4.22724 3.34652C2.05797 5.18259 0.61627 7.72601 0.159911 10.522C-0.296448 13.318 0.262293 16.1842 1.73624 18.6082C3.21018 21.0321 5.50321 22.8558 8.2053 23.753C8.80142 23.8636 9.02596 23.4941 9.02596 23.18C9.02596 22.8658 9.01404 21.955 9.01006 20.9592C5.67176 21.6804 4.96635 19.5505 4.96635 19.5505C4.42189 18.1674 3.635 17.8039 3.635 17.8039C2.54608 17.065 3.71648 17.0788 3.71648 17.0788C4.92264 17.1637 5.55652 18.3097 5.55652 18.3097C6.62557 20.1333 8.36426 19.6058 9.04782 19.2976C9.15512 18.5251 9.4671 17.9995 9.81086 17.7012C7.1442 17.4008 4.3424 16.3774 4.3424 11.8054C4.32588 10.6197 4.76839 9.47305 5.57838 8.60268C5.45518 8.30236 5.04384 7.08923 5.69561 5.44143C5.69561 5.44143 6.70307 5.12136 8.99616 6.66444C10.963 6.12962 13.0382 6.12962 15.0051 6.66444C17.2962 5.12136 18.3017 5.44143 18.3017 5.44143C18.9554 7.08528 18.5441 8.29841 18.4209 8.60268C19.2334 9.47319 19.6769 10.6218 19.6588 11.8094C19.6588 16.3912 16.8511 17.4008 14.1805 17.6952C14.6097 18.0667 14.9932 18.7918 14.9932 19.9061C14.9932 21.5026 14.9793 22.7868 14.9793 23.18C14.9793 23.4981 15.1959 23.8695 15.8039 23.753C18.5063 22.8557 20.7996 21.0317 22.2735 18.6073C23.7474 16.183 24.3059 13.3163 23.849 10.5201C23.3921 7.7238 21.9497 5.18035 19.7797 3.34461C17.6097 1.50886 14.8537 0.500541 12.0046 0.5H12.0006Z" fill="#E6F2FF"/>
</g>
<defs>
<clipPath id="clip0_0_355">
<rect width="24" height="24" fill="white"/>
</clipPath>
</defs>
</svg>
