<svg width="24" height="24" viewBox="0 0 24 24" fill="none" xmlns="http://www.w3.org/2000/svg">
<g clip-path="url(#clip0_0_356)">
<path d="M4.50508 1.0876C3.7457 1.38291 3.10352 1.77666 2.46133 2.41885C1.81914 3.05635 1.42539 3.70322 1.13008 4.45791C0.844141 5.18916 0.651953 6.02822 0.595703 7.25635C0.539453 8.48447 0.525391 8.87822 0.525391 12.0095C0.525391 15.1407 0.539453 15.5345 0.595703 16.7626C0.651953 17.9907 0.848828 18.8298 1.13008 19.561C1.42539 20.3204 1.81914 20.9626 2.46133 21.6048C3.10352 22.247 3.7457 22.6407 4.50508 22.936C5.23633 23.222 6.07539 23.4142 7.30352 23.4704C8.53164 23.5267 8.92539 23.5407 12.0566 23.5407C15.1879 23.5407 15.5816 23.5267 16.8098 23.4704C18.0379 23.4142 18.877 23.2173 19.6082 22.936C20.3676 22.6407 21.0098 22.247 21.652 21.6048C22.2941 20.9626 22.6879 20.3204 22.9832 19.561C23.2691 18.8298 23.4613 17.9907 23.5176 16.7626C23.5738 15.5345 23.5879 15.1407 23.5879 12.0095C23.5879 8.87822 23.5738 8.48447 23.5176 7.25635C23.4613 6.02822 23.2645 5.18916 22.9832 4.45791C22.6879 3.70322 22.2941 3.05635 21.6566 2.41885C21.0145 1.77666 20.3723 1.38291 19.6129 1.0876C18.8816 0.80166 18.0426 0.609473 16.8145 0.553223C15.5863 0.496973 15.1926 0.48291 12.0613 0.48291C8.93008 0.48291 8.53633 0.496973 7.3082 0.553223C6.07539 0.604785 5.23633 0.80166 4.50508 1.0876ZM16.716 2.6251C17.841 2.67666 18.4504 2.86416 18.8582 3.02354C19.3973 3.23447 19.7816 3.48291 20.1848 3.88603C20.5879 4.28916 20.8363 4.67353 21.0473 5.2126C21.2066 5.62041 21.3941 6.22978 21.4457 7.35478C21.502 8.56885 21.5113 8.93447 21.5113 12.0142C21.5113 15.0938 21.4973 15.4595 21.4457 16.6735C21.3941 17.7985 21.2066 18.4079 21.0473 18.8157C20.8363 19.3548 20.5879 19.7392 20.1848 20.1423C19.7816 20.5454 19.3973 20.7938 18.8582 21.0048C18.4504 21.1642 17.841 21.3517 16.716 21.4032C15.502 21.4595 15.1363 21.4688 12.0566 21.4688C8.97695 21.4688 8.61133 21.4548 7.39727 21.4032C6.27227 21.3517 5.66289 21.1642 5.25508 21.0048C4.71602 20.7938 4.33164 20.5454 3.92852 20.1423C3.52539 19.7392 3.27695 19.3548 3.06602 18.8157C2.90664 18.4079 2.71914 17.7985 2.66758 16.6735C2.61133 15.4595 2.60195 15.0938 2.60195 12.0142C2.60195 8.93447 2.61602 8.56885 2.66758 7.35478C2.71914 6.22978 2.90664 5.62041 3.06602 5.2126C3.27695 4.67353 3.52539 4.28916 3.92852 3.88603C4.33164 3.48291 4.71602 3.23447 5.25508 3.02354C5.66289 2.86416 6.27227 2.67666 7.39727 2.6251C8.61133 2.56885 8.97695 2.55947 12.0566 2.55947C15.1363 2.55947 15.502 2.56885 16.716 2.6251Z" fill="#E6F2FF"/>
<path d="M6.13672 12.0141C6.13672 15.2859 8.78984 17.9344 12.057 17.9344C15.3242 17.9344 17.9773 15.2812 17.9773 12.0141C17.9773 8.74687 15.3289 6.09375 12.057 6.09375C8.78516 6.09375 6.13672 8.74219 6.13672 12.0141ZM15.9008 12.0141C15.9008 14.1375 14.1805 15.8578 12.057 15.8578C9.93359 15.8578 8.21328 14.1375 8.21328 12.0141C8.21328 9.89062 9.93359 8.17031 12.057 8.17031C14.1805 8.17031 15.9008 9.89062 15.9008 12.0141Z" fill="#E6F2FF"/>
<path d="M18.2161 7.24231C18.9798 7.24231 19.5989 6.6232 19.5989 5.8595C19.5989 5.09579 18.9798 4.47668 18.2161 4.47668C17.4524 4.47668 16.8333 5.09579 16.8333 5.8595C16.8333 6.6232 17.4524 7.24231 18.2161 7.24231Z" fill="#E6F2FF"/>
</g>
<defs>
<clipPath id="clip0_0_356">
<rect width="24" height="24" fill="white"/>
</clipPath>
</defs>
</svg>
