<svg width="48" height="48" viewBox="0 0 48 48" fill="none" xmlns="http://www.w3.org/2000/svg">
<path d="M24 28C13.98 28 5.82 34.72 5.82 43C5.82 43.56 6.26 44 6.82 44H41.18C41.74 44 42.18 43.56 42.18 43C42.18 34.72 34.02 28 24 28Z" fill="#0000FF"/>
<path d="M33.44 20.7L31.52 18.78C32.52 17.28 33.1 15.48 33.1 13.54C33.1 8.26 28.82 4 23.56 4C18.3 4 14 8.28 14 13.54C14 18.8 18.28 23.08 23.54 23.08C25.48 23.08 27.28 22.5 28.78 21.5L30.7 23.42C31.08 23.8 31.58 23.98 32.06 23.98C32.56 23.98 33.06 23.8 33.42 23.42C34.18 22.68 34.18 21.46 33.44 20.7Z" fill="#0000FF"/>
</svg>
