<svg width="48" height="48" viewBox="0 0 48 48" fill="none" xmlns="http://www.w3.org/2000/svg">
<path d="M41.82 22.2399V13.4599C41.82 11.8199 40.58 9.95989 39.04 9.33989L27.9 4.77989C25.4 3.75989 22.58 3.75989 20.08 4.77989L8.93999 9.33989C7.41999 9.95989 6.17999 11.8199 6.17999 13.4599V22.2399C6.17999 32.0199 13.28 41.1799 22.98 43.8599C23.64 44.0399 24.36 44.0399 25.02 43.8599C34.72 41.1799 41.82 32.0199 41.82 22.2399ZM25.5 25.7399V30.9999C25.5 31.8199 24.82 32.4999 24 32.4999C23.18 32.4999 22.5 31.8199 22.5 30.9999V25.7399C20.48 25.0999 19 23.2199 19 20.9999C19 18.2399 21.24 15.9999 24 15.9999C26.76 15.9999 29 18.2399 29 20.9999C29 23.2399 27.52 25.0999 25.5 25.7399Z" fill="#0000FF"/>
</svg>
