<svg width="48" height="48" viewBox="0 0 48 48" fill="none" xmlns="http://www.w3.org/2000/svg">
<path d="M16.58 12.58C15.74 12.58 15.08 11.9 15.08 11.08V5.5C15.08 4.68 15.74 4 16.58 4C17.42 4 18.08 4.68 18.08 5.5V11.06C18.08 11.9 17.42 12.58 16.58 12.58Z" fill="#0000FF"/>
<path d="M31.42 12.58C30.58 12.58 29.92 11.9 29.92 11.08V5.5C29.92 4.66 30.6 4 31.42 4C32.26 4 32.92 4.68 32.92 5.5V11.06C32.92 11.9 32.26 12.58 31.42 12.58Z" fill="#0000FF"/>
<path d="M39.14 9C37.82 8.02 35.92 8.96 35.92 10.62V10.82C35.92 13.16 34.24 15.32 31.9 15.56C29.2 15.84 26.92 13.72 26.92 11.08V9C26.92 7.9 26.02 7 24.92 7H23.08C21.98 7 21.08 7.9 21.08 9V11.08C21.08 12.66 20.26 14.06 19.02 14.84C18.84 14.96 18.64 15.06 18.44 15.16C18.26 15.26 18.06 15.34 17.84 15.4C17.6 15.48 17.34 15.54 17.06 15.56C16.74 15.6 16.42 15.6 16.1 15.56C15.82 15.54 15.56 15.48 15.32 15.4C15.12 15.34 14.92 15.26 14.72 15.16C14.52 15.06 14.32 14.96 14.14 14.84C12.88 13.96 12.08 12.44 12.08 10.82V10.62C12.08 9.08 10.44 8.16 9.14 8.82C9.12 8.84 9.1 8.84 9.08 8.86C9 8.9 8.94 8.94 8.86 9C8.8 9.06 8.72 9.1 8.66 9.16C8.1 9.6 7.6 10.1 7.18 10.64C6.96 10.88 6.78 11.14 6.62 11.4C6.6 11.42 6.58 11.44 6.56 11.48C6.38 11.74 6.22 12.04 6.08 12.32C6.04 12.36 6.02 12.38 6.02 12.42C5.9 12.66 5.78 12.9 5.7 13.16C5.64 13.26 5.62 13.34 5.58 13.44C5.46 13.74 5.38 14.04 5.3 14.34C5.22 14.62 5.16 14.92 5.12 15.22C5.08 15.44 5.06 15.66 5.04 15.9C5.02 16.18 5 16.46 5 16.74V34.26C5 39.64 9.36 44 14.74 44H33.26C38.64 44 43 39.64 43 34.26V16.74C43 13.56 41.48 10.78 39.14 9ZM24 34.84H14.72C13.9 34.84 13.22 34.16 13.22 33.34C13.22 32.5 13.9 31.82 14.72 31.82H24C24.84 31.82 25.5 32.5 25.5 33.34C25.5 34.16 24.84 34.84 24 34.84ZM29.56 27.42H14.72C13.9 27.42 13.22 26.74 13.22 25.92C13.22 25.08 13.9 24.4 14.72 24.4H29.56C30.4 24.4 31.08 25.08 31.08 25.92C31.08 26.74 30.4 27.42 29.56 27.42Z" fill="#0000FF"/>
</svg>
