<svg width="48" height="48" viewBox="0 0 48 48" fill="none" xmlns="http://www.w3.org/2000/svg">
<path d="M5.5 37.3C4.68 37.3 4 36.62 4 35.8V24.4C3.9 18.98 5.92 13.86 9.68 10.02C13.44 6.19998 18.48 4.09998 23.9 4.09998C34.98 4.09998 44 13.12 44 24.2V35.6C44 36.42 43.32 37.1 42.5 37.1C41.68 37.1 41 36.42 41 35.6V24.2C41 14.78 33.34 7.09998 23.9 7.09998C19.28 7.09998 15 8.87998 11.82 12.12C8.62 15.38 6.92 19.72 7 24.36V35.78C7 36.62 6.34 37.3 5.5 37.3Z" fill="#0000FF"/>
<path d="M11.88 24.9H11.62C7.42 24.9 4 28.32 4 32.52V36.28C4 40.48 7.42 43.9 11.62 43.9H11.88C16.08 43.9 19.5 40.48 19.5 36.28V32.52C19.5 28.32 16.08 24.9 11.88 24.9Z" fill="#0000FF"/>
<path d="M36.38 24.9H36.12C31.92 24.9 28.5 28.32 28.5 32.52V36.28C28.5 40.48 31.92 43.9 36.12 43.9H36.38C40.58 43.9 44 40.48 44 36.28V32.52C44 28.32 40.58 24.9 36.38 24.9Z" fill="#0000FF"/>
</svg>
