<svg width="48" height="48" viewBox="0 0 48 48" fill="none" xmlns="http://www.w3.org/2000/svg">
<path d="M41.82 22.24V13.46C41.82 11.82 40.58 9.96001 39.04 9.34001L27.9 4.78001C25.4 3.76001 22.58 3.76001 20.08 4.78001L8.93999 9.34001C7.41999 9.96001 6.17999 11.82 6.17999 13.46V22.24C6.17999 32.02 13.28 41.18 22.98 43.86C23.64 44.04 24.36 44.04 25.02 43.86C34.72 41.18 41.82 32.02 41.82 22.24ZM25.5 25.74V31C25.5 31.82 24.82 32.5 24 32.5C23.18 32.5 22.5 31.82 22.5 31V25.74C20.48 25.1 19 23.22 19 21C19 18.24 21.24 16 24 16C26.76 16 29 18.24 29 21C29 23.24 27.52 25.1 25.5 25.74Z" fill="#0000FF"/>
</svg>
