<svg width="48" height="48" viewBox="0 0 48 48" fill="none" xmlns="http://www.w3.org/2000/svg">
<path d="M34.78 31.34L26.7 24H21.28L13.2 31.34C10.94 33.38 10.2 36.52 11.3 39.36C12.4 42.18 15.08 44 18.1 44H29.88C32.92 44 35.58 42.18 36.68 39.36C37.78 36.52 37.04 33.38 34.78 31.34ZM27.64 36.28H20.36C19.6 36.28 19 35.66 19 34.92C19 34.18 19.62 33.56 20.36 33.56H27.64C28.4 33.56 29 34.18 29 34.92C29 35.66 28.38 36.28 27.64 36.28Z" fill="#0000FF"/>
<path d="M36.7 8.64C35.6 5.82 32.92 4 29.9 4H18.1C15.08 4 12.4 5.82 11.3 8.64C10.22 11.48 10.96 14.62 13.22 16.66L21.3 24H26.72L34.8 16.66C37.04 14.62 37.78 11.48 36.7 8.64ZM27.64 14.46H20.36C19.6 14.46 19 13.84 19 13.1C19 12.36 19.62 11.74 20.36 11.74H27.64C28.4 11.74 29 12.36 29 13.1C29 13.84 28.38 14.46 27.64 14.46Z" fill="#0000FF"/>
</svg>
