<svg width="48" height="48" viewBox="0 0 48 48" fill="none" xmlns="http://www.w3.org/2000/svg">
<path d="M24 28C13.98 28 5.82001 34.72 5.82001 43C5.82001 43.56 6.26001 44 6.82001 44H41.18C41.74 44 42.18 43.56 42.18 43C42.18 34.72 34.02 28 24 28Z" fill="#0000FF"/>
<path d="M24 4C21.64 4 19.48 4.82 17.76 6.2C15.46 8.02 14 10.84 14 14C14 15.88 14.52 17.64 15.46 19.14C17.18 22.04 20.34 24 24 24C26.52 24 28.82 23.08 30.58 21.5C31.36 20.84 32.04 20.04 32.56 19.14C33.48 17.64 34 15.88 34 14C34 8.48 29.52 4 24 4ZM29.18 12.92L23.84 17.84C23.48 18.18 23.02 18.34 22.56 18.34C22.08 18.34 21.6 18.16 21.24 17.8L18.78 15.32C18.04 14.58 18.04 13.4 18.78 12.66C19.52 11.92 20.7 11.92 21.44 12.66L22.62 13.84L26.64 10.14C27.4 9.44 28.58 9.48 29.28 10.24C29.98 11.02 29.94 12.22 29.18 12.92Z" fill="#0000FF"/>
</svg>
