<svg width="48" height="48" viewBox="0 0 48 48" fill="none" xmlns="http://www.w3.org/2000/svg">
<path d="M43.12 21.48L40.4 18.32C39.88 17.72 39.46 16.6 39.46 15.8V12.4C39.46 10.28 37.72 8.53999 35.6 8.53999H32.2C31.42 8.53999 30.28 8.11999 29.68 7.59999L26.52 4.88C25.14 3.7 22.88 3.7 21.48 4.88L18.34 7.61999C17.74 8.11999 16.6 8.53999 15.82 8.53999H12.36C10.24 8.53999 8.50001 10.28 8.50001 12.4V15.82C8.50001 16.6 8.08001 17.72 7.58001 18.32L4.88001 21.5C3.72001 22.88 3.72001 25.12 4.88001 26.5L7.58001 29.68C8.08001 30.28 8.50001 31.4 8.50001 32.18V35.6C8.50001 37.72 10.24 39.46 12.36 39.46H15.82C16.6 39.46 17.74 39.88 18.34 40.4L21.5 43.12C22.88 44.3 25.14 44.3 26.54 43.12L29.7 40.4C30.3 39.88 31.42 39.46 32.22 39.46H35.62C37.74 39.46 39.48 37.72 39.48 35.6V32.2C39.48 31.42 39.9 30.28 40.42 29.68L43.14 26.52C44.3 25.14 44.3 22.86 43.12 21.48ZM32.32 20.22L22.66 29.88C22.38 30.16 22 30.32 21.6 30.32C21.2 30.32 20.82 30.16 20.54 29.88L15.7 25.04C15.12 24.46 15.12 23.5 15.7 22.92C16.28 22.34 17.24 22.34 17.82 22.92L21.6 26.7L30.2 18.1C30.78 17.52 31.74 17.52 32.32 18.1C32.9 18.68 32.9 19.64 32.32 20.22Z" fill="#0000FF"/>
</svg>
